# xmcd
#
# Track frame offsets:
#	150
#	12011
#	24024
#	36394
#	49934
#	63490
#	75131
#	88165
#	102167
#	114126
#	128973
#	145371
#	160573
#	175997
#
# Disc length: 2540 seconds
#
# Revision: 3
# Processed by: cddbd v1.5.2PL0 Copyright (c) Steve Scherf et al.
# Submitted via: audiograbber 1.83.01
#
DISCID=a409ea0e
DTITLE=Louis Armstrong (The Best Of ~) CD 3 - The Best Of ~ CD 3
DYEAR=2005
DGENRE=Jazz
TTITLE0=Honey, do!
TTITLE1=Swing you cats
TTITLE2=Mighty river
TTITLE3=Do you know what it means to Miss New Orleans
TTITLE4=Jack-Armstrong blues
TTITLE5=I wonder, I wonder, I wonder
TTITLE6=Before long
TTITLE7=Where the blues were born in New Orleans
TTITLE8=It takes time
TTITLE9=Wrap your troubles in dream
TTITLE10=Star dust
TTITLE11=Between the devil and the deep blue sea
TTITLE12=I'm confessin'
TTITLE13=I´m a ding dong daddy
EXTD=
EXTT0=
EXTT1=
EXTT2=
EXTT3=
EXTT4=
EXTT5=
EXTT6=
EXTT7=
EXTT8=
EXTT9=
EXTT10=
EXTT11=
EXTT12=
EXTT13=
PLAYORDER=
